<svg width="30" height="30" viewBox="0 0 24 24" fill="none" xmlns="http://www.w3.org/2000/svg">
<path fill-rule="evenodd" clip-rule="evenodd" d="M6.28571 4H17.7143C18.3205 4 18.9019 4.24082 19.3305 4.66947C19.7592 5.09812 20 5.67951 20 6.28571V17.7143C20 18.3205 19.7592 18.9019 19.3305 19.3305C18.9019 19.7592 18.3205 20 17.7143 20H6.28571C5.67951 20 5.09812 19.7592 4.66947 19.3305C4.24082 18.9019 4 18.3205 4 17.7143V6.28571C4 5.67951 4.24082 5.09812 4.66947 4.66947C5.09812 4.24082 5.67951 4 6.28571 4Z" stroke="#56B7C3" stroke-linecap="round" stroke-linejoin="round"/>
<path fill-rule="evenodd" clip-rule="evenodd" d="M6.28571 6.28571H17.7143C18.3205 6.28571 18.9019 6.52653 19.3305 6.95518C19.7592 7.38384 20 7.96522 20 8.57143V6.28571C20 5.14286 18.9771 4 17.7143 4H6.28571C5.02286 4 4 5.14286 4 6.28571V8.57143C4 7.96522 4.24082 7.38384 4.66947 6.95518C5.09812 6.52653 5.67951 6.28571 6.28571 6.28571Z" fill="#56B7C3" stroke="#56B7C3" stroke-linecap="round" stroke-linejoin="round"/>
<path d="M8.56915 12.0001H9.71201M8.56915 9.71436H13.1372M8.56915 14.2858H15.4229M8.56915 16.5715H13.1372" stroke="#56B7C3" stroke-linecap="round" stroke-linejoin="round"/>
</svg>
