<svg width="16" height="11" viewBox="0 0 16 11" fill="none" xmlns="http://www.w3.org/2000/svg">
<path d="M13.5125 0.387634H2.4C1.97897 0.387634 1.57518 0.554888 1.27747 0.852602C0.979754 1.15032 0.8125 1.5541 0.8125 1.97513V9.11889C0.8125 9.53992 0.979754 9.9437 1.27747 10.2414C1.57518 10.5391 1.97897 10.7064 2.4 10.7064H13.5125C13.9335 10.7064 14.3373 10.5391 14.635 10.2414C14.9327 9.9437 15.1 9.53992 15.1 9.11889V1.97513C15.1 1.5541 14.9327 1.15032 14.635 0.852602C14.3373 0.554888 13.9335 0.387634 13.5125 0.387634Z" fill="#56B7C3"/>
<path d="M13.5125 0.387634H2.4C1.97897 0.387634 1.57518 0.554888 1.27747 0.852602C0.979754 1.15032 0.8125 1.5541 0.8125 1.97513V9.11889C0.8125 9.53992 0.979754 9.9437 1.27747 10.2414C1.57518 10.5391 1.97897 10.7064 2.4 10.7064H13.5125C13.9335 10.7064 14.3373 10.5391 14.635 10.2414C14.9327 9.9437 15.1 9.53992 15.1 9.11889V1.97513C15.1 1.5541 14.9327 1.15032 14.635 0.852602C14.3373 0.554888 13.9335 0.387634 13.5125 0.387634ZM5.82583 6.19471L7.09741 7.30596C7.33951 7.5171 7.64589 7.62187 7.95625 7.62187C8.26661 7.62187 8.57299 7.5163 8.81509 7.30596L10.0867 6.19471L10.0573 6.22408L12.9513 9.11809H2.96118L5.85519 6.22408L5.82583 6.19471ZM2.4 8.5577V3.19751L5.25909 5.69862L2.4 8.5577ZM10.6534 5.69862L13.5125 3.19751V8.55532L10.6534 5.69862ZM13.5125 1.97513V2.14182L8.2928 6.70906C8.1972 6.78531 8.07854 6.82683 7.95625 6.82683C7.83396 6.82683 7.7153 6.78531 7.6197 6.70906L2.4 2.14182V1.97513H13.5125Z" fill="white"/>
</svg>
