<svg width="10" height="13" viewBox="0 0 10 13" fill="none" xmlns="http://www.w3.org/2000/svg">
<path d="M5.3529 9.38945C5.65113 9.38945 5.93714 9.27098 6.14802 9.0601C6.3589 8.84922 6.47738 8.5632 6.47738 8.26497C6.47738 7.96674 6.3589 7.68072 6.14802 7.46984C5.93714 7.25896 5.65113 7.14049 5.3529 7.14049C5.05467 7.14049 4.76865 7.25896 4.55777 7.46984C4.34689 7.68072 4.22842 7.96674 4.22842 8.26497C4.22842 8.5632 4.34689 8.84922 4.55777 9.0601C4.76865 9.27098 5.05467 9.38945 5.3529 9.38945ZM8.72633 4.32929C9.02456 4.32929 9.31058 4.44776 9.52146 4.65865C9.73234 4.86953 9.85081 5.15554 9.85081 5.45377V11.0762C9.85081 11.3744 9.73234 11.6604 9.52146 11.8713C9.31058 12.0822 9.02456 12.2006 8.72633 12.2006H1.97946C1.68123 12.2006 1.39521 12.0822 1.18433 11.8713C0.973452 11.6604 0.85498 11.3744 0.85498 11.0762V5.45377C0.85498 5.15554 0.973452 4.86953 1.18433 4.65865C1.39521 4.44776 1.68123 4.32929 1.97946 4.32929H2.5417V3.20481C2.5417 2.45924 2.83788 1.7442 3.36508 1.217C3.89228 0.689795 4.60732 0.393616 5.3529 0.393616C5.72207 0.393616 6.08763 0.46633 6.4287 0.607605C6.76977 0.748881 7.07967 0.955953 7.34071 1.217C7.60176 1.47804 7.80883 1.78794 7.95011 2.12901C8.09138 2.47008 8.16409 2.83564 8.16409 3.20481V4.32929H8.72633ZM5.3529 1.51809C4.90555 1.51809 4.47653 1.6958 4.16021 2.01212C3.84389 2.32844 3.66618 2.75747 3.66618 3.20481V4.32929H7.03962V3.20481C7.03962 2.75747 6.86191 2.32844 6.54559 2.01212C6.22927 1.6958 5.80024 1.51809 5.3529 1.51809Z" fill="#56B7C3"/>
</svg>
