<svg width="10" height="14" viewBox="0 0 10 14" fill="none" xmlns="http://www.w3.org/2000/svg">
<path id="Vector" d="M7.52773 3.60781C7.52763 3.92042 7.46595 4.22994 7.34623 4.51871C7.2265 4.80748 7.05107 5.06985 6.82995 5.29082C6.60883 5.51179 6.34636 5.68705 6.05751 5.80658C5.76866 5.92611 5.45909 5.98758 5.14648 5.98748C4.67567 5.98732 4.21548 5.84755 3.82411 5.58586C3.43273 5.32416 3.12775 4.95228 2.94772 4.51725C2.76769 4.08222 2.72071 3.60357 2.81272 3.14184C2.90472 2.6801 3.13158 2.25602 3.4646 1.92322C3.79763 1.59042 4.22186 1.36385 4.68365 1.27215C5.14545 1.18045 5.62406 1.22775 6.05897 1.40807C6.49388 1.58838 6.86556 1.89362 7.127 2.28517C7.38843 2.67672 7.52789 3.137 7.52773 3.60781ZM9.11523 12.3327H1.17773V10.7484C1.17773 10.1168 1.42862 9.51116 1.87519 9.06459C2.32176 8.61802 2.92744 8.36714 3.55898 8.36714H6.73398C7.36553 8.36714 7.97121 8.61802 8.41778 9.06459C8.86435 9.51116 9.11523 10.1168 9.11523 10.7484V12.3327Z" fill="#56B7C3" stroke="#56B7C3" stroke-width="1.5" stroke-linecap="square"/>
</svg>
